<?xml version="1.0" encoding="UTF-8" standalone="no"?>
<!DOCTYPE svg PUBLIC "-//W3C//DTD SVG 1.1//EN" "http://www.w3.org/Graphics/SVG/1.1/DTD/svg11.dtd">
<!-- Created with Vectornator (http://vectornator.io/) -->
<svg height="100%" stroke-miterlimit="10" style="fill-rule:nonzero;clip-rule:evenodd;stroke-linecap:round;stroke-linejoin:round;" version="1.1" viewBox="0 0 1024 1024" width="100%" xml:space="preserve" xmlns="http://www.w3.org/2000/svg" xmlns:xlink="http://www.w3.org/1999/xlink">
<defs>
<linearGradient gradientTransform="matrix(6.85604e-14 1024 -1024 5.7245e-14 512 0)" gradientUnits="userSpaceOnUse" id="LinearGradient" x1="0" x2="1" y1="0" y2="0">
<stop offset="0" stop-color="#bad7f2"/>
<stop offset="1" stop-color="#9fd1ff"/>
</linearGradient>
<filter color-interpolation-filters="sRGB" filterUnits="userSpaceOnUse" height="882.979" id="Filter" width="852.637" x="95.3767" y="98.6674">
<feDropShadow dx="9.69499" dy="28.1566" flood-color="#8eaecb" flood-opacity="0.742371" in="SourceGraphic" result="Shadow" stdDeviation="25.3935"/>
</filter>
</defs>
<clipPath id="ArtboardFrame">
<rect height="1024" width="1024" x="0" y="0"/>
</clipPath>
<g clip-path="url(#ArtboardFrame)" id="图层-1" visibility="hidden">
<path d="M1024 1024L0 1024L-1.13687e-13 3.1351e-14L1024-1.45038e-13L1024 1024Z" fill="url(#LinearGradient)" fill-rule="nonzero" opacity="1" stroke="none"/>
</g>
<g id="图层-2">
<g opacity="1">
<g filter="url(#Filter)">
<path d="M510.853 591.459L870.746 138.084L655.699 846.185L549.365 780.303L510.853 591.459Z" fill="#5a95da" fill-rule="nonzero" opacity="1" stroke="#5a95da" stroke-linecap="round" stroke-linejoin="round" stroke-width="8.17823"/>
<path d="M497.503 420.551L153.254 885.916L350.564 173.746L395.762 360.557L497.503 420.551Z" fill="#5a95da" fill-rule="nonzero" opacity="1" stroke="#5a95da" stroke-linecap="round" stroke-linejoin="round" stroke-width="8.17823"/>
</g>
<g opacity="0">
<g opacity="1">
<g opacity="1">
<path d="M153.254 885.916L350.528 158.555L395.752 360.927L153.254 885.916Z" fill="#222a68" fill-rule="nonzero" opacity="1" stroke="none"/>
</g>
</g>
</g>
<g opacity="0">
<g opacity="1">
<path d="M870.746 138.084L655.713 846.257L548.731 780.128L870.746 138.084Z" fill="#222a68" fill-rule="nonzero" opacity="1" stroke="none"/>
</g>
</g>
</g>
<path d="M434.762 512.241L399.332 357.909L503.632 419.245L434.762 512.241Z" fill="#bad7f2" fill-rule="nonzero" opacity="1" stroke="none"/>
<path d="M545.461 781.566L506.448 590.427L867.085 136.086L545.461 781.566Z" fill="#bad7f2" fill-rule="nonzero" opacity="1" stroke="none"/>
</g>
</svg>
